# Blender v2.78 (sub 0) OBJ File: 'untitled.blend'
# www.blender.org
mtllib untitled.mtl
o AV_ramp_big_68_RampLarge
v -5.285312 2.397485 1.449336
v -5.285320 2.397485 -2.950665
v -5.285320 2.359003 -2.950665
v -5.285312 2.359003 1.449336
v -0.285320 4.227021 -2.950674
v -0.285312 2.359003 1.449327
v -0.285320 2.359003 -2.950674
v -0.285312 4.227021 1.449327
v -4.035320 2.359003 -2.950667
v -4.035312 2.359003 1.449333
v -2.785320 2.359003 -2.950669
v -2.785312 2.359003 1.449331
v -1.535320 2.358909 -2.950671
v -1.535312 2.358909 1.449329
v -1.535320 3.600015 -2.950671
v -2.785320 3.098715 -2.950669
v -4.035320 2.686061 -2.950667
v -1.535312 3.600015 1.449329
v -2.785312 3.098715 1.449331
v -4.035312 2.686061 1.449333
vt 0.8750 0.2500
vt 0.6250 0.2500
vt 0.6250 0.0000
vt 0.8750 0.0000
vt 0.3750 0.2500
vt 0.1250 0.0000
vt 0.3750 0.0000
vt 0.1250 0.2500
vt 0.6250 0.7500
vt 0.6250 1.0000
vt 0.5625 1.0000
vt 0.5625 0.7500
vt 0.5000 1.0000
vt 0.5000 0.7500
vt 0.4375 1.0000
vt 0.4375 0.7500
vt 0.3750 0.7500
vt 0.3750 1.0000
vt 0.4375 0.2500
vt 0.4375 0.0000
vt 0.5000 0.2500
vt 0.5000 0.0000
vt 0.5625 0.2500
vt 0.5625 0.0000
vt 0.4375 0.5000
vt 0.3750 0.5000
vt 0.5000 0.5000
vt 0.5625 0.5000
vt 0.6250 0.5000
vn -1.0000 -0.0039 0.0039
vn 1.0000 -0.0039 0.0039
vn 0.0039 -1.0000 0.0039
vn 0.0040 -1.0000 0.0039
vn 0.0035 -0.0043 -1.0000
vn 0.0039 -0.0040 -1.0000
vn 0.0039 -0.0039 -1.0000
vn 0.0036 -0.0042 -1.0000
vn 0.0038 -0.0040 -1.0000
vn 0.0035 -0.0043 1.0000
vn 0.0039 -0.0039 1.0000
vn 0.0039 -0.0040 1.0000
vn 0.0036 -0.0042 1.0000
vn 0.0038 -0.0040 1.0000
vn -0.2703 0.9628 0.0039
vn -0.2253 0.9743 0.0040
vn -0.2253 0.9743 0.0039
vn -0.3444 0.9388 0.0040
vn -0.4075 0.9132 0.0040
vn -0.4489 0.8936 0.0039
usemtl SolidOrange
s 1
f 1/1/1 2/2/1 3/3/1
f 3/3/1 4/4/1 1/1/1
f 5/5/2 6/6/2 7/7/2
f 6/6/2 5/5/2 8/8/2
f 4/9/3 3/10/3 9/11/3
f 9/11/3 10/12/3 4/9/3
f 10/12/3 9/11/3 11/13/4
f 11/13/4 12/14/4 10/12/3
f 12/14/4 11/13/4 13/15/3
f 13/15/3 14/16/3 12/14/4
f 13/15/3 6/17/3 14/16/3
f 7/18/3 6/17/3 13/15/3
f 15/19/5 5/5/6 7/7/7
f 15/19/5 7/7/7 13/20/7
f 13/20/7 16/21/5 15/19/5
f 16/21/5 13/20/7 11/22/7
f 11/22/7 17/23/8 16/21/5
f 17/23/8 11/22/7 9/24/7
f 9/24/7 2/2/9 17/23/8
f 2/2/9 9/24/7 3/3/7
f 18/25/10 6/17/11 8/26/12
f 6/17/11 18/25/10 14/16/11
f 19/27/10 14/16/11 18/25/10
f 14/16/11 19/27/10 12/14/11
f 20/28/13 12/14/11 19/27/10
f 12/14/11 20/28/13 10/12/11
f 1/29/14 10/12/11 20/28/13
f 10/12/11 1/29/14 4/9/11
f 20/28/15 2/2/16 1/29/17
f 2/2/16 20/28/15 17/23/15
f 19/27/18 17/23/15 20/28/15
f 17/23/15 19/27/18 16/21/18
f 18/25/19 16/21/18 19/27/18
f 16/21/18 18/25/19 15/19/19
f 15/19/19 18/25/19 5/5/20
f 5/5/20 18/25/19 8/26/20
