# Blender v2.78 (sub 0) OBJ File: 'untitled.blend'
# www.blender.org
mtllib untitled.mtl
o AV_bump_wave_104_BumpWave
v -37.321217 -5.868523 -53.148762
v -32.945324 -5.868523 -53.148762
v -32.945324 -5.959118 -53.148762
v -37.321217 -5.959118 -53.148762
v -37.321217 -5.959118 -50.667053
v -32.945324 -5.959118 -50.667049
v -32.945324 -5.868523 -50.667049
v -37.321217 -5.868523 -50.667053
v -37.321217 -5.423326 -51.597691
v -37.321217 -5.959118 -51.597691
v -37.321217 -5.599849 -51.287476
v -37.321217 -5.959118 -51.287476
v -37.321217 -5.761250 -50.977264
v -37.321217 -5.959118 -50.977264
v -37.321217 -5.959118 -52.218121
v -37.321217 -5.423326 -52.218121
v -37.321217 -5.599849 -52.528336
v -37.321217 -5.959118 -52.528336
v -37.321217 -5.761250 -52.838547
v -37.321217 -5.959118 -52.838547
v -37.321217 -5.830821 -50.822159
v -37.321217 -5.959118 -50.822159
v -37.321217 -5.830821 -52.993656
v -37.321217 -5.959118 -52.993656
v -32.945324 -5.830821 -52.993656
v -32.945324 -5.761250 -52.838547
v -32.945324 -5.599849 -52.528332
v -32.945324 -5.423326 -52.218121
v -32.945324 -5.366149 -52.063011
v -37.321217 -5.366149 -52.063015
v -37.321217 -5.343914 -51.907906
v -32.945324 -5.343914 -51.907906
v -37.321217 -5.366149 -51.752796
v -32.945324 -5.366149 -51.752796
v -32.945324 -5.423326 -51.597691
v -32.945324 -5.599849 -51.287476
v -32.945324 -5.761250 -50.977261
v -32.945324 -5.830821 -50.822155
v -32.945324 -5.959118 -50.822155
v -32.945324 -5.959118 -50.977261
v -32.945324 -5.959118 -51.287476
v -32.945324 -5.959118 -51.597691
v -37.321217 -5.959118 -51.752796
v -32.945324 -5.959118 -51.752796
v -32.945324 -5.959118 -51.907906
v -37.321217 -5.959118 -51.907906
v -32.945324 -5.959118 -52.063011
v -37.321217 -5.959118 -52.063015
v -32.945324 -5.959118 -52.218121
v -32.945324 -5.959118 -52.528332
v -32.945324 -5.959118 -52.838547
v -32.945324 -5.959118 -52.993656
vt 0.6245 0.2500
vt 0.6245 0.2500
vt 0.6245 0.0000
vt 0.6245 0.0000
vt 0.5747 0.0000
vt 0.5747 0.0000
vt 0.5747 0.2500
vt 0.5747 0.2500
vt 0.5933 0.2500
vt 0.5933 0.0000
vt 0.5874 0.2500
vt 0.5874 0.0000
vt 0.5811 0.2500
vt 0.5811 0.0000
vt 0.6060 0.0000
vt 0.6060 0.2500
vt 0.6123 0.2500
vt 0.6123 0.0000
vt 0.6187 0.2500
vt 0.6187 0.0000
vt 0.5776 0.2500
vt 0.5776 0.0000
vt 0.6216 0.2500
vt 0.6216 0.0000
vt 0.6216 0.2500
vt 0.6187 0.2500
vt 0.6123 0.2500
vt 0.6060 0.2500
vt 0.6030 0.2500
vt 0.6030 0.2500
vt 0.5996 0.2500
vt 0.5996 0.2500
vt 0.5967 0.2500
vt 0.5967 0.2500
vt 0.5933 0.2500
vt 0.5874 0.2500
vt 0.5811 0.2500
vt 0.5776 0.2500
vt 0.5776 0.0000
vt 0.5811 0.0000
vt 0.5874 0.0000
vt 0.5933 0.0000
vt 0.5967 0.0000
vt 0.5967 0.0000
vt 0.5996 0.0000
vt 0.5996 0.0000
vt 0.6030 0.0000
vt 0.6030 0.0000
vt 0.6060 0.0000
vt 0.6123 0.0000
vt 0.6187 0.0000
vt 0.6216 0.0000
vn -0.0039 -0.0039 -1.0000
vn -0.0039 -0.0039 1.0000
vn -1.0000 -0.0039 0.0039
vn -0.0039 0.9726 -0.2323
vn -0.0039 0.9726 -0.2324
vn -0.0039 0.9447 -0.3281
vn -0.0039 0.9446 -0.3281
vn -0.0039 0.8952 -0.4456
vn -0.0040 0.8789 -0.4769
vn -0.0039 0.9690 -0.2471
vn -0.0039 1.0000 0.0039
vn -0.0039 0.9671 0.2545
vn -0.0039 0.8920 0.4519
vn -0.0039 0.8921 0.4519
vn -0.0039 0.8756 0.4830
vn -0.0039 0.9422 0.3351
vn -0.0040 0.9708 0.2398
vn -0.0039 0.9708 0.2398
vn -0.0039 -1.0000 0.0039
vn 1.0000 -0.0039 0.0039
usemtl SolidOrange
s 1
f 1/1/1 2/2/1 3/3/1
f 3/3/1 4/4/1 1/1/1
f 5/5/2 6/6/2 7/7/2
f 7/7/2 8/8/2 5/5/2
f 9/9/3 10/10/3 11/11/3
f 11/11/3 10/10/3 12/12/3
f 12/12/3 13/13/3 11/11/3
f 13/13/3 12/12/3 14/14/3
f 15/15/3 16/16/3 17/17/3
f 18/18/3 15/15/3 17/17/3
f 19/19/3 18/18/3 17/17/3
f 18/18/3 19/19/3 20/20/3
f 13/13/3 14/14/3 21/21/3
f 22/22/3 21/21/3 14/14/3
f 22/22/3 8/8/3 21/21/3
f 22/22/3 5/5/3 8/8/3
f 20/20/3 19/19/3 23/23/3
f 24/24/3 20/20/3 23/23/3
f 23/23/3 1/1/3 24/24/3
f 4/4/3 24/24/3 1/1/3
f 2/2/4 1/1/5 23/23/6
f 23/23/6 25/25/7 2/2/4
f 25/25/7 23/23/6 19/19/8
f 19/19/8 26/26/8 25/25/7
f 26/26/8 19/19/8 17/17/9
f 17/17/9 27/27/9 26/26/8
f 27/27/9 17/17/9 16/16/8
f 16/16/8 28/28/8 27/27/9
f 16/16/8 29/29/10 28/28/8
f 29/29/10 16/16/8 30/30/10
f 29/29/10 30/30/10 31/31/11
f 31/31/11 32/32/11 29/29/10
f 32/32/11 31/31/11 33/33/12
f 33/33/12 34/34/12 32/32/11
f 33/33/12 35/35/13 34/34/12
f 35/35/13 33/33/12 9/9/14
f 35/35/13 9/9/14 11/11/15
f 11/11/15 36/36/15 35/35/13
f 36/36/15 11/11/15 13/13/14
f 13/13/14 37/37/13 36/36/15
f 13/13/14 38/38/16 37/37/13
f 38/38/16 13/13/14 21/21/16
f 21/21/16 7/7/17 38/38/16
f 7/7/17 21/21/16 8/8/18
f 6/6/19 5/5/19 22/22/19
f 22/22/19 39/39/19 6/6/19
f 39/39/19 22/22/19 14/14/19
f 14/14/19 40/40/19 39/39/19
f 14/14/19 41/41/19 40/40/19
f 41/41/19 14/14/19 12/12/19
f 12/12/19 42/42/19 41/41/19
f 42/42/19 12/12/19 10/10/19
f 42/42/19 10/10/19 43/43/19
f 43/43/19 44/44/19 42/42/19
f 43/43/19 45/45/19 44/44/19
f 45/45/19 43/43/19 46/46/19
f 46/46/19 47/47/19 45/45/19
f 47/47/19 46/46/19 48/48/19
f 47/47/19 48/48/19 15/15/19
f 15/15/19 49/49/19 47/47/19
f 15/15/19 50/50/19 49/49/19
f 50/50/19 15/15/19 18/18/19
f 18/18/19 51/51/19 50/50/19
f 51/51/19 18/18/19 20/20/19
f 20/20/19 52/52/19 51/51/19
f 52/52/19 20/20/19 24/24/19
f 24/24/19 3/3/19 52/52/19
f 3/3/19 24/24/19 4/4/19
f 48/48/3 16/16/3 15/15/3
f 16/16/3 48/48/3 30/30/3
f 46/46/3 30/30/3 48/48/3
f 30/30/3 46/46/3 31/31/3
f 46/46/3 33/33/3 31/31/3
f 33/33/3 46/46/3 43/43/3
f 43/43/3 9/9/3 33/33/3
f 9/9/3 43/43/3 10/10/3
f 2/2/20 52/52/20 3/3/20
f 2/2/20 25/25/20 52/52/20
f 25/25/20 51/51/20 52/52/20
f 25/25/20 26/26/20 51/51/20
f 26/26/20 50/50/20 51/51/20
f 50/50/20 26/26/20 27/27/20
f 27/27/20 49/49/20 50/50/20
f 27/27/20 28/28/20 49/49/20
f 28/28/20 47/47/20 49/49/20
f 47/47/20 28/28/20 29/29/20
f 29/29/20 45/45/20 47/47/20
f 45/45/20 29/29/20 32/32/20
f 34/34/20 45/45/20 32/32/20
f 45/45/20 34/34/20 44/44/20
f 35/35/20 44/44/20 34/34/20
f 44/44/20 35/35/20 42/42/20
f 36/36/20 42/42/20 35/35/20
f 42/42/20 36/36/20 41/41/20
f 37/37/20 41/41/20 36/36/20
f 41/41/20 37/37/20 40/40/20
f 38/38/20 40/40/20 37/37/20
f 40/40/20 38/38/20 39/39/20
f 7/7/20 39/39/20 38/38/20
f 39/39/20 7/7/20 6/6/20
